<svg xmlns="http://www.w3.org/2000/svg" xmlns:xlink="http://www.w3.org/1999/xlink" width="100" height="100" viewBox="0 0 100 100"><rect width="100%" height="100%" fill="#FFFFFF"></rect>
  <g transform="translate(50 50) scale(0.69 0.69) rotate(0) translate(-50 -50)" style="fill:#CC0000">
    <svg fill="#CC0000" xmlns="http://www.w3.org/2000/svg" xmlns:xlink="http://www.w3.org/1999/xlink" version="1.1" x="0px" y="0px" viewBox="0 0 90 90" style="enable-background:new 0 0 90 90;" xml:space="preserve">
      <path d="M44.3,8.5c-13.6,0-24.7,11.1-24.7,24.7c0,0.4,0,0.9,0,1.3l0.1,2c0.4,2.1,1.3,5.7,3.3,10.8c3,7.4,9.1,19.3,21.4,35  c5.8-8,22.7-32.2,24.2-44.9l0-0.1c0.2-1.3,0.3-2.7,0.3-4.1C69,19.6,57.9,8.5,44.3,8.5z M44.2,44.2c-6,0-10.9-4.9-10.9-10.9  c0-6,4.9-10.9,10.9-10.9c6,0,10.9,4.9,10.9,10.9C55.1,39.3,50.2,44.2,44.2,44.2z">
      </path>
    </svg>
  </g>
</svg>
